<svg width="400" height="200" viewBox="0 0 400 200" fill="none" xmlns="http://www.w3.org/2000/svg">
  <defs>
    <linearGradient id="backgroundGradient" x1="0%" y1="0%" x2="0%" y2="100%">
      <stop offset="0%" style="stop-color:#F9FAFB;stop-opacity:1" />
      <stop offset="100%" style="stop-color:#F1F5F9;stop-opacity:1" />
    </linearGradient>
  </defs>
  
  <!-- Background -->
  <rect width="400" height="200" fill="url(#backgroundGradient)"/>
  
  <!-- Car shadow -->
  <ellipse cx="200" cy="175" rx="130" ry="4" fill="#000" opacity="0.1"/>
  
  <!-- Main car silhouette -->
  <path d="M60 150 L70 150 Q75 150 80 145 L85 140 L90 135 Q95 130 105 125 L115 120 Q125 115 140 115 L150 115 L155 110 Q160 105 170 105 L180 105 L185 100 Q190 95 200 95 L220 95 Q230 95 235 100 L240 105 L250 105 Q260 105 265 110 L270 115 L280 115 Q295 115 305 120 L315 125 Q325 130 330 135 L335 140 L340 145 Q345 150 350 150 L360 150 Q365 150 365 155 L365 160 Q365 165 360 165 L350 165 L345 165 L340 165 L335 165 L60 165 L55 165 Q50 165 50 160 L50 155 Q50 150 55 150 Z" 
        fill="#374151" 
        stroke="#1F2937" 
        stroke-width="2"/>
  
  <!-- Front spoiler -->
  <path d="M50 155 L70 155 L75 160 L65 160 Q55 160 50 160 Z" 
        fill="#374151"/>
  
  <!-- Rear spoiler -->
  <path d="M325 160 L335 155 L350 155 L350 160 Q345 160 335 160 Z" 
        fill="#374151"/>
  
  <!-- Front wheel well -->
  <circle cx="120" cy="165" r="22" fill="url(#backgroundGradient)" stroke="#374151" stroke-width="2"/>
  
  <!-- Rear wheel well -->
  <circle cx="280" cy="165" r="22" fill="url(#backgroundGradient)" stroke="#374151" stroke-width="2"/>
  
  <!-- Front wheel -->
  <circle cx="120" cy="165" r="18" fill="#1F2937"/>
  <circle cx="120" cy="165" r="12" fill="#374151"/>
  <circle cx="120" cy="165" r="6" fill="#6B7280"/>
  
  <!-- Rear wheel -->
  <circle cx="280" cy="165" r="18" fill="#1F2937"/>
  <circle cx="280" cy="165" r="12" fill="#374151"/>
  <circle cx="280" cy="165" r="6" fill="#6B7280"/>
  
  <!-- Side windows outline -->
  <path d="M155 115 L170 105 Q175 102 185 102 L190 102 Q200 102 205 102 L215 102 Q225 102 230 105 L245 115" 
        fill="none" 
        stroke="#1F2937" 
        stroke-width="1.5"/>
  
  <!-- Door line -->
  <path d="M140 125 L260 125" 
        fill="none" 
        stroke="#1F2937" 
        stroke-width="1"/>
  
  <!-- Front headlight area -->
  <ellipse cx="75" cy="140" rx="8" ry="5" fill="#374151"/>
  
  <!-- Rear light area -->
  <ellipse cx="325" cy="140" rx="8" ry="5" fill="#374151"/>
  
  <!-- Placeholder text -->
  <text x="200" y="50" font-family="-apple-system, BlinkMacSystemFont, 'Segoe UI', Roboto, sans-serif" 
        font-size="11" font-weight="400" fill="#6B7280" text-anchor="middle" opacity="0.6">
    No Image Available
  </text>
</svg>